<?xml version='1.0' encoding='utf-8'?>
<svg xmlns="http://www.w3.org/2000/svg" version="1.0" width="803.000000" height="803.000000" viewBox="110.500000 110.500000 803.000000 803.000000" preserveAspectRatio="xMidYMid meet">

<g transform="translate(0.000000,1024.000000) scale(0.100000,-0.100000)" fill="#000000" stroke="none">
<path d="M4935 7003 c-109 -8 -375 -47 -578 -84 -59 -10 -382 -100 -495 -138 -35 -11 -100 -36 -145 -55 -45 -19 -118 -49 -162 -66 -207 -81 -581 -298 -770 -446 -245 -193 -449 -447 -585 -729 -127 -266 -172 -356 -221 -440 -141 -246 -342 -450 -587 -595 -51 -30 -92 -57 -92 -60 0 -4 20 -27 44 -53 54 -55 192 -125 314 -158 45 -12 82 -25 82 -29 0 -17 -109 -142 -193 -221 l-92 -86 39 -11 c44 -13 119 -5 261 27 47 10 85 17 85 14 0 -23 -124 -162 -244 -272 -69 -64 -104 -133 -119 -235 -15 -107 5 -196 44 -196 5 0 29 18 53 40 24 22 48 40 53 40 18 0 41 -35 49 -74 3 -21 15 -47 26 -58 17 -17 21 -17 46 -4 15 8 45 33 67 56 22 23 48 46 57 51 26 14 62 -7 89 -52 13 -22 29 -47 35 -56 19 -27 59 -8 106 52 59 76 83 76 138 -4 22 -33 44 -63 50 -66 20 -12 50 7 81 52 27 39 35 44 58 39 88 -20 87 -20 111 18 12 21 25 63 29 94 5 40 18 73 43 112 19 30 50 84 67 119 32 63 33 63 69 58 349 -51 545 -77 593 -77 l59 0 21 -45 c12 -25 42 -63 67 -85 75 -67 106 -72 453 -77 415 -7 446 0 488 117 l22 60 292 0 c160 0 365 5 455 11 89 7 165 10 167 7 3 -2 -7 -49 -21 -104 -21 -84 -25 -117 -22 -214 2 -95 7 -123 26 -161 28 -57 103 -133 158 -159 48 -24 121 -28 150 -10 17 11 30 6 94 -34 41 -25 80 -46 87 -46 19 0 40 39 48 87 12 73 60 66 145 -21 24 -25 52 -46 62 -46 25 0 45 37 53 98 4 31 12 52 19 52 7 0 32 -15 56 -32 87 -66 79 -63 98 -44 13 12 17 33 16 79 -1 62 -21 114 -73 191 l-19 29 85 101 c47 55 125 160 173 231 48 72 93 135 101 142 8 6 59 21 114 32 55 12 143 32 195 45 52 13 138 34 190 46 87 20 180 45 434 117 86 24 91 24 103 7 21 -29 15 -121 -17 -252 -51 -210 -36 -321 55 -401 68 -60 87 -64 350 -72 132 -4 249 -5 260 -2 27 8 35 22 35 62 0 40 7 39 90 -20 82 -57 95 -52 94 36 0 55 -6 81 -27 122 -15 29 -27 62 -27 74 0 17 22 106 46 188 3 10 17 3 45 -25 38 -36 41 -38 54 -21 7 10 16 57 19 105 6 77 4 99 -23 197 -16 60 -28 111 -27 113 2 1 24 -13 48 -32 25 -18 56 -37 68 -41 22 -7 23 -6 16 46 -15 109 -66 213 -165 337 -55 67 -51 74 23 47 39 -14 66 -11 66 7 0 11 -49 84 -106 158 -79 101 -234 215 -352 260 l-47 18 38 15 c72 30 187 58 324 77 324 46 414 84 481 200 14 25 40 61 57 81 55 61 79 173 78 359 -1 169 -10 209 -61 263 -40 43 -71 55 -179 72 -54 9 -143 32 -197 51 -131 46 -252 58 -509 49 -223 -7 -279 -19 -411 -85 -56 -28 -109 -66 -174 -125 -51 -47 -96 -85 -101 -85 -5 0 -33 37 -62 83 -241 378 -316 469 -531 640 -58 46 -284 190 -358 227 -280 143 -630 283 -838 335 -77 19 -200 42 -273 50 -119 13 -351 17 -464 8z m445 -174 c239 -28 563 -121 649 -188 l24 -18 -54 -18 c-30 -10 -94 -38 -144 -63 -147 -73 -151 -74 -273 -57 -58 8 -146 15 -196 15 -121 0 -196 13 -346 60 -80 25 -170 45 -250 55 -182 23 -198 41 -129 141 36 53 32 51 115 65 155 26 418 30 604 8z m-934 -123 c-33 -51 -40 -56 -102 -75 -46 -15 -94 -21 -158 -21 -92 0 -204 15 -219 29 -11 11 276 98 363 111 77 10 142 17 148 13 2 -1 -12 -26 -32 -57z m-472 -208 c-4 -7 -34 -51 -67 -98 -116 -164 -224 -366 -284 -530 -69 -186 -124 -354 -144 -439 -28 -113 -42 -134 -110 -171 -128 -68 -399 -105 -563 -76 -92 16 -116 27 -116 55 0 9 20 73 44 141 121 342 176 453 332 680 105 153 173 233 232 274 80 55 333 136 502 161 118 18 183 19 174 3z m753 -8 c130 -22 272 -65 279 -85 3 -7 -24 -57 -59 -111 -197 -307 -296 -544 -381 -917 -9 -36 -60 -60 -176 -81 -205 -38 -394 -40 -655 -5 -147 19 -148 21 -105 167 17 59 43 139 57 177 14 39 41 113 60 165 71 194 286 563 380 652 41 39 137 56 325 57 114 1 187 -4 275 -19z m1654 4 c256 -74 666 -469 750 -721 11 -34 19 -79 17 -100 l-3 -38 -90 1 c-186 1 -602 23 -639 34 -58 17 -84 37 -113 89 -130 227 -214 346 -356 503 -53 59 -97 109 -97 111 0 7 192 87 272 113 87 28 181 31 259 8z m-851 -145 c126 -20 201 -71 346 -237 120 -137 314 -448 314 -504 0 -35 -37 -84 -131 -171 -226 -211 -555 -316 -852 -272 -168 25 -418 106 -468 151 -27 24 -24 66 16 201 69 238 141 408 242 572 118 191 163 245 223 264 28 10 245 7 310 -4z m-2606 -261 c-4 -7 -22 -33 -40 -58 -74 -104 -223 -422 -280 -600 -52 -162 -77 -214 -117 -233 -38 -19 -232 -46 -244 -33 -10 9 10 62 76 201 119 249 326 515 530 676 76 61 87 68 75 47z m5681 -282 c70 -34 92 -39 180 -46 132 -9 170 -26 197 -86 18 -43 20 -61 16 -193 -5 -163 -22 -230 -55 -216 -113 47 -215 50 -363 11 -64 -17 -143 -30 -202 -33 -86 -5 -98 -8 -98 -24 0 -48 116 -56 300 -19 176 35 300 17 300 -42 0 -12 -18 -38 -40 -59 -47 -45 -76 -52 -320 -74 -238 -21 -358 -20 -454 5 -106 27 -162 60 -249 147 l-75 74 -12 -35 c-18 -56 -71 -116 -179 -206 -56 -46 -101 -85 -101 -88 0 -2 8 -1 18 3 33 14 122 33 122 26 0 -10 -88 -58 -287 -157 -154 -77 -182 -88 -275 -104 -102 -17 -126 -17 -98 0 129 79 510 422 477 428 -9 2 -36 -8 -59 -22 -60 -35 -214 -93 -268 -100 -44 -7 -45 -7 -25 11 12 10 70 72 129 138 59 66 161 172 225 235 64 63 164 165 221 226 199 210 296 244 680 241 l215 -2 80 -39z m-1735 -335 c97 -22 229 -67 248 -85 28 -27 -306 -297 -405 -326 -37 -11 -49 -10 -125 15 -100 33 -438 203 -438 221 0 28 153 145 222 170 105 38 342 40 498 5z m-763 -297 c84 -39 373 -197 384 -211 17 -19 4 -30 -171 -144 -208 -134 -337 -199 -400 -199 -56 0 -77 19 -106 98 -9 26 -37 97 -61 159 -29 73 -43 124 -41 145 3 32 8 36 148 105 156 78 172 81 247 47z m-1239 -99 c101 -34 176 -65 181 -74 6 -10 -2 -59 -20 -131 -55 -218 -72 -348 -71 -541 2 -163 0 -179 -18 -202 -46 -58 -249 -126 -385 -129 -94 -2 -140 13 -159 51 -48 92 -103 371 -116 576 -9 154 -6 419 6 449 13 34 182 67 319 62 78 -3 112 -11 263 -61z m-753 9 c19 -14 20 -28 21 -302 1 -318 14 -424 75 -630 36 -122 35 -152 -4 -170 -50 -24 -168 -34 -329 -29 -183 6 -208 15 -244 87 -13 25 -37 97 -54 160 -17 63 -41 153 -55 200 -27 97 -59 305 -75 492 -9 110 -9 131 5 157 8 17 23 35 32 40 11 6 131 10 313 10 246 0 298 -2 315 -15z m-798 -159 c2 -115 20 -324 34 -405 17 -93 79 -340 110 -437 17 -51 29 -103 27 -115 -3 -23 -5 -23 -133 -22 -212 1 -544 54 -578 92 -14 15 -14 31 -2 137 8 66 19 201 25 300 15 263 36 479 48 502 13 23 62 32 181 34 42 1 101 4 131 9 30 4 78 7 105 6 l50 -1 2 -100z m-623 71 c31 -20 32 -40 11 -176 -21 -134 -53 -423 -64 -565 -9 -126 -29 -195 -56 -195 -9 0 -71 14 -137 31 -134 33 -281 90 -324 124 l-27 22 27 35 c58 76 160 282 213 428 19 52 52 141 75 197 36 93 43 104 72 113 48 15 180 6 210 -14z m2868 -3 c8 -10 19 -30 25 -44 24 -55 123 -389 123 -413 0 -29 -32 -56 -130 -109 -73 -40 -377 -157 -408 -157 -11 0 -30 9 -43 19 -22 18 -24 27 -27 134 -4 123 4 179 60 407 43 179 32 169 191 173 72 1 146 4 163 5 19 1 36 -5 46 -15z m-3239 1 c15 -15 -134 -346 -227 -504 -79 -136 -136 -195 -194 -204 -54 -8 -171 23 -316 84 l-39 16 54 31 c118 67 290 240 418 422 29 42 69 95 88 119 l34 42 88 0 c48 0 90 -3 94 -6z m4215 -443 c44 -23 94 -94 121 -172 55 -162 24 -422 -63 -516 -29 -32 -33 -34 -59 -22 -23 11 -30 10 -43 -3 -13 -12 -14 -20 -5 -36 18 -33 13 -63 -16 -105 -28 -40 -97 -87 -128 -87 -10 0 -28 9 -40 20 -28 26 -60 17 -50 -14 20 -62 18 -76 -25 -141 -23 -35 -61 -85 -85 -111 -41 -44 -46 -46 -87 -41 -24 2 -53 8 -66 12 -18 6 -30 -1 -66 -38 -57 -60 -112 -97 -144 -97 -14 0 -45 12 -69 26 l-44 25 -34 -34 c-19 -19 -35 -42 -35 -50 0 -19 -47 -57 -70 -57 -9 0 -27 12 -41 26 -22 24 -24 33 -23 122 1 156 52 313 173 528 120 215 276 436 422 598 64 72 212 165 294 187 46 12 141 2 183 -20z m1147 -322 c44 -18 61 -30 63 -45 6 -43 -124 -123 -229 -142 -59 -11 -67 -9 -51 10 31 39 34 124 7 192 -8 18 -4 18 71 14 50 -3 101 -14 139 -29z m-396 10 c18 -6 38 -24 46 -40 35 -68 4 -129 -88 -172 -46 -22 -326 -104 -414 -122 -40 -8 -41 0 -12 97 17 57 26 73 51 86 17 10 62 37 102 62 133 85 239 115 315 89z m-5485 -861 c14 -39 -2 -93 -39 -138 l-35 -42 -11 29 c-17 45 -27 126 -19 149 5 12 19 29 31 38 20 13 26 14 44 2 11 -7 24 -24 29 -38z m269 -9 c11 -20 16 -46 13 -65 -5 -36 -45 -134 -55 -134 -11 0 -61 104 -69 145 -11 50 0 83 30 94 33 12 61 -1 81 -40z m261 -1 c11 -15 16 -45 16 -86 0 -118 -35 -135 -80 -39 -32 65 -38 115 -18 135 20 20 65 14 82 -10z m3691 -294 c9 -4 25 -25 37 -47 22 -45 37 -157 21 -157 -6 0 -38 29 -72 65 -67 72 -76 103 -39 129 25 18 29 19 53 10z m-257 -30 c12 -8 29 -29 38 -47 17 -32 25 -129 12 -143 -12 -11 -155 123 -162 152 -4 15 -2 32 5 40 15 19 79 18 107 -2z" />
<path d="M8440 5729 c-57 -6 -144 -44 -136 -58 3 -4 27 -4 53 0 26 4 75 8 109 8 70 1 104 -17 186 -97 26 -25 50 -44 52 -41 12 11 -44 107 -82 142 -23 20 -45 37 -50 37 -4 0 -23 4 -42 8 -19 4 -60 5 -90 1z" />
<path d="M8432 5649 c-92 -12 -104 -17 -96 -42 34 -119 155 -183 251 -134 52 27 59 42 37 83 -25 46 -73 90 -104 96 -14 3 -53 1 -88 -3z" />
<path d="M8881 5616 c-16 -28 -8 -46 20 -46 17 0 20 6 17 32 -4 40 -20 46 -37 14z" />
</g>
</svg>